<svg width="38" height="38" viewBox="0 0 38 38" xmlns="http://www.w3.org/2000/svg"><g fill="#fff"><path d="M19 27.93c-4.924 0-8.93-4.006-8.93-8.93 0-4.924 4.006-8.93 8.93-8.93 4.924 0 8.93 4.006 8.93 8.93 0 4.924-4.006 8.93-8.93 8.93zm0-16c-3.898 0-7.07 3.172-7.07 7.07s3.172 7.07 7.07 7.07 7.07-3.172 7.07-7.07-3.172-7.07-7.07-7.07zM21.67 37.93h-5.34l-1.54-4.62c-1.02-.3-2.002-.706-2.933-1.214l-4.354 2.177-3.777-3.776 2.178-4.355c-.508-.93-.914-1.91-1.214-2.932L.07 21.67v-5.34l4.62-1.54c.3-1.02.706-2.003 1.214-2.932L3.726 7.503l3.777-3.777 4.354 2.178c.93-.508 1.913-.915 2.932-1.214L16.33.07h5.34l1.54 4.62c1.02.3 2.002.706 2.933 1.214l4.354-2.178 3.777 3.777-2.178 4.355c.508.93.914 1.91 1.214 2.932l4.62 1.54v5.34l-4.62 1.54c-.3 1.02-.706 2.003-1.214 2.932l2.178 4.355-3.777 3.776-4.354-2.177c-.93.508-1.914.915-2.932 1.214l-1.54 4.62zm-4-1.86h2.66l1.434-4.3.49-.126c1.19-.306 2.33-.777 3.387-1.402l.437-.258 4.053 2.027 1.88-1.88-2.027-4.053.26-.437c.622-1.053 1.094-2.192 1.402-3.387l.125-.49 4.3-1.433v-2.66l-4.3-1.433-.125-.49c-.308-1.195-.78-2.334-1.403-3.387l-.26-.437 2.03-4.053-1.882-1.88-4.053 2.026-.436-.258c-1.055-.625-2.195-1.096-3.386-1.402l-.49-.126-1.434-4.3h-2.66l-1.434 4.3-.49.126c-1.19.306-2.33.777-3.387 1.402l-.437.258L7.87 5.99 5.99 7.87l2.027 4.053-.26.437c-.622 1.053-1.094 2.192-1.402 3.387l-.126.49-4.3 1.433v2.66l4.3 1.433.125.49c.308 1.195.78 2.334 1.403 3.387l.26.437-2.03 4.053 1.882 1.88 4.053-2.026.436.258c1.055.625 2.195 1.096 3.386 1.402l.49.126 1.434 4.3z"/></g></svg>