<?xml version="1.0" encoding="UTF-8" standalone="no"?>
<svg width="22px" height="22px" viewBox="0 0 22 22" version="1.1" xmlns="http://www.w3.org/2000/svg" xmlns:xlink="http://www.w3.org/1999/xlink" xmlns:sketch="http://www.bohemiancoding.com/sketch/ns">
    <!-- Generator: Sketch 3.2.2 (9983) - http://www.bohemiancoding.com/sketch -->
    <title>Untitled 2</title>
    <desc>Created with Sketch.</desc>
    <defs></defs>
    <g id="Page-1" stroke="none" stroke-width="1" fill="none" fill-rule="evenodd" sketch:type="MSPage">
        <path d="M16.2912533,13.6365496 L21.7824813,19.1277776 C21.8672903,19.2253995 21.9099998,19.335224 21.9099998,19.4572513 C21.9099998,19.5792786 21.8672903,19.6891032 21.7824813,19.786725 L19.786725,21.7818712 C19.688493,21.8672903 19.5792786,21.9099998 19.4572513,21.9099998 C19.335224,21.9099998 19.2253995,21.8672903 19.1277776,21.7818712 L13.6365496,16.2906432 C12.1844249,17.242456 10.5919687,17.7183624 8.85918122,17.7183624 C6.4180253,17.7183624 4.33135864,16.8519687 2.5997914,15.1191812 C0.866393756,13.3863937 0,11.299727 0,8.85918122 C0,6.41863543 0.866393756,4.33196878 2.5997914,2.59918127 C4.33135864,0.866393756 6.4180253,0 8.85918122,0 C11.299727,0 13.3863937,0.866393756 15.1197913,2.59918127 C16.8519687,4.33196878 17.7189726,6.41863543 17.7189726,8.85918122 C17.7189726,10.5919687 17.2430662,12.1844249 16.2912533,13.6365496 C16.2912533,13.6365496 17.2430662,12.1844249 16.2912533,13.6365496 L16.2912533,13.6365496 L16.2912533,13.6365496 Z M4.57602336,4.59432745 C3.39235865,5.77799216 2.8005263,7.19961009 2.8005263,8.85918122 C2.8005263,10.5187524 3.39235865,11.9403703 4.57602336,13.124035 C5.75968807,14.3076997 7.18740736,14.8995321 8.85918122,14.8995321 C10.5309551,14.8995321 11.9556237,14.3113605 13.133187,13.133187 C14.3107504,11.9556237 14.8995321,10.5309551 14.8995321,8.85918122 C14.8995321,7.18740736 14.3107504,5.76273875 13.133187,4.58517541 C11.9556237,3.40761206 10.5309551,2.81883039 8.85918122,2.81883039 C7.18740736,2.81883039 5.75968807,3.41066274 4.57602336,4.59432745 L4.57602336,4.59432745 Z" id="SearchButtonIcon" fill="#231F1F" sketch:type="MSShapeGroup"></path>
    </g>
</svg>